<svg xmlns="http://www.w3.org/2000/svg" xmlns:xlink="http://www.w3.org/1999/xlink" width="1188" zoomAndPan="magnify" viewBox="0 0 890.88 257.250001" height="343" preserveAspectRatio="xMidYMid meet" version="1.0"><defs><g/><clipPath id="0fa12ad6aa"><path d="M 1.234375 22.777344 L 190.433594 22.777344 L 190.433594 232.914062 L 1.234375 232.914062 Z M 1.234375 22.777344 " clip-rule="nonzero"/></clipPath></defs><path fill="#010101" d="M 131.015625 140.605469 C 129.636719 140.414062 127.070312 140.21875 124.578125 139.664062 C 122.039062 139.097656 121.539062 140.230469 121.777344 142.363281 C 123.859375 160.902344 115.269531 176.871094 98.59375 185.550781 C 96.953125 186.40625 95.398438 186.695312 93.734375 185.753906 C 84.945312 180.769531 76.863281 174.746094 72.679688 165.34375 C 66.214844 150.8125 67.851562 148.644531 81.546875 143.039062 C 85.839844 141.28125 90.433594 140.808594 95.058594 140.710938 C 97.648438 140.65625 99.632812 141.617188 99.683594 144.40625 C 99.734375 147.15625 97.84375 148.277344 95.238281 148.351562 C 89.722656 148.507812 84.433594 149.578125 79.558594 152.300781 C 78.347656 152.980469 77.007812 153.519531 77.273438 155.339844 C 77.613281 157.6875 78.082031 160.019531 79.679688 161.832031 C 80.414062 162.664062 81.25 161.648438 81.925781 161.242188 C 85.664062 158.972656 89.761719 157.890625 94.070312 157.558594 C 97.617188 157.285156 99.65625 158.636719 99.738281 161.203125 C 99.8125 163.613281 98.035156 165.078125 94.628906 165.234375 C 91.800781 165.367188 89.179688 166.117188 86.664062 167.398438 C 84.992188 168.253906 84.335938 169.097656 86.035156 170.664062 C 88.640625 173.058594 91.363281 175.273438 94.308594 177.222656 C 95.429688 177.964844 96.367188 178.011719 97.511719 177.226562 C 107.6875 170.222656 117.136719 158.9375 114.535156 142.832031 C 113.910156 138.964844 112.726562 135.371094 109.464844 132.804688 C 107.460938 131.230469 106.613281 129.289062 108.230469 126.96875 C 109.566406 125.050781 112.046875 125.027344 114.464844 126.824219 C 122.242188 132.59375 130.90625 134.335938 140.230469 132.058594 C 145.871094 130.679688 150.414062 127.503906 152.398438 121.730469 C 154.367188 116.003906 152.089844 110.160156 146.570312 106.457031 C 139.183594 101.503906 131.265625 101.785156 123.230469 104.511719 C 115.085938 107.277344 108.472656 112.550781 101.917969 117.886719 C 95.625 123.011719 89.558594 128.425781 82.671875 132.777344 C 73.667969 138.46875 64.03125 141.804688 53.214844 140.285156 C 46.421875 139.332031 40.59375 136.386719 36.09375 131.117188 C 28.054688 121.710938 29.945312 108.042969 40.273438 100.566406 C 49.230469 94.089844 59.144531 93.949219 69.40625 96.21875 C 72.535156 96.910156 75.613281 97.792969 78.554688 99.089844 C 80.019531 99.738281 80.722656 99.535156 80.636719 97.75 C 80.441406 93.859375 80.851562 90.082031 82.859375 86.605469 C 83.726562 85.105469 82.511719 83.984375 81.863281 82.804688 C 80.179688 79.75 80.371094 77.671875 82.640625 76.421875 C 85.367188 74.921875 87.140625 76.386719 88.390625 78.660156 C 89.242188 80.210938 90.164062 80.78125 91.980469 80.179688 C 94.558594 79.320312 97.28125 79.316406 99.867188 80.160156 C 101.628906 80.738281 102.621094 80.335938 103.488281 78.726562 C 104.707031 76.457031 106.449219 74.9375 109.207031 76.386719 C 111.515625 77.597656 111.890625 79.800781 110.039062 82.707031 C 108.808594 84.648438 108.640625 86.253906 109.816406 88.292969 C 111.09375 90.511719 111.246094 92.859375 108.625 94.410156 C 106.457031 95.6875 104.585938 94.730469 102.894531 91.636719 C 101.019531 88.210938 97.929688 86.835938 93.984375 87.675781 C 90.683594 88.378906 88.660156 90.761719 88.472656 94.585938 C 88.300781 98.101562 88.429688 101.632812 88.347656 105.15625 C 88.238281 109.820312 85.695312 111.347656 81.636719 109.117188 C 75.183594 105.574219 68.355469 103.332031 60.996094 102.730469 C 54.566406 102.207031 48.621094 103.429688 43.664062 107.785156 C 36.894531 113.738281 37.222656 123.03125 44.476562 128.511719 C 52.15625 134.308594 60.597656 133.941406 69.175781 130.949219 C 75.507812 128.738281 80.910156 124.890625 86.152344 120.816406 C 94.386719 114.417969 101.914062 107.074219 110.976562 101.78125 C 121.304688 95.753906 132.171875 92.734375 144.0625 96.617188 C 154.320312 99.96875 161.097656 108.792969 160.683594 118.671875 C 160.300781 127.894531 154.960938 133.777344 147.121094 137.734375 C 142.445312 140.09375 137.394531 140.847656 131.015625 140.605469 Z M 131.015625 140.605469 " fill-opacity="1" fill-rule="evenodd"/><g clip-path="url(#0fa12ad6aa)"><path fill="#010101" d="M 190.382812 91.824219 C 190.242188 79.535156 184.777344 69.988281 174.238281 63.78125 C 153.164062 51.386719 131.996094 39.132812 110.707031 27.109375 C 106.152344 24.53125 101.472656 23.109375 96.789062 22.832031 L 96.789062 22.777344 C 96.496094 22.773438 96.203125 22.796875 95.90625 22.804688 C 95.613281 22.796875 95.316406 22.773438 95.023438 22.777344 L 95.023438 22.832031 C 90.339844 23.109375 85.660156 24.53125 81.105469 27.109375 C 59.816406 39.132812 38.648438 51.386719 17.574219 63.78125 C 7.035156 69.988281 1.570312 79.535156 1.429688 91.824219 C 1.289062 103.882812 1.289062 152.085938 1.429688 164.144531 C 1.570312 176.433594 7.035156 185.984375 17.574219 192.191406 C 38.648438 204.585938 59.816406 216.835938 81.105469 228.863281 C 85.660156 231.4375 90.339844 232.863281 95.023438 233.140625 L 95.023438 233.195312 C 95.316406 233.195312 95.613281 233.175781 95.90625 233.167969 C 96.203125 233.175781 96.496094 233.195312 96.789062 233.195312 L 96.789062 233.136719 C 101.472656 232.863281 106.152344 231.4375 110.707031 228.859375 C 131.996094 216.835938 153.164062 204.585938 174.238281 192.191406 C 184.777344 185.980469 190.242188 176.433594 190.382812 164.144531 C 190.523438 152.085938 190.523438 103.882812 190.382812 91.824219 Z M 182.605469 165.136719 C 182.550781 173.761719 178.429688 180.640625 171.144531 184.957031 C 149.644531 197.652344 128 210.136719 106.253906 222.410156 C 102.921875 224.285156 99.429688 225.246094 95.90625 225.390625 C 92.386719 225.246094 88.890625 224.285156 85.5625 222.410156 C 63.8125 210.136719 42.171875 197.652344 20.667969 184.957031 C 13.382812 180.640625 9.265625 173.761719 9.210938 165.136719 C 9.121094 152.757812 9.121094 103.210938 9.210938 90.835938 C 9.261719 82.207031 13.382812 75.328125 20.667969 71.011719 C 42.171875 58.316406 63.8125 45.832031 85.5625 33.5625 C 88.890625 31.6875 92.386719 30.722656 95.90625 30.582031 C 99.429688 30.722656 102.921875 31.6875 106.253906 33.5625 C 128 45.832031 149.644531 58.316406 171.144531 71.011719 C 178.429688 75.328125 182.550781 82.207031 182.605469 90.835938 C 182.691406 103.214844 182.691406 152.757812 182.605469 165.136719 Z M 182.605469 165.136719 " fill-opacity="1" fill-rule="evenodd"/></g><g fill="#000000" fill-opacity="1"><g transform="translate(217.817733, 179.504384)"><g><path d="M 12.015625 0 L 12.015625 -103.625 L 47.296875 -103.625 C 54.710938 -103.625 60.820312 -102.46875 65.625 -100.15625 C 70.425781 -97.851562 74.003906 -94.75 76.359375 -90.84375 C 78.710938 -86.945312 79.890625 -82.546875 79.890625 -77.640625 C 79.890625 -72.234375 78.710938 -67.753906 76.359375 -64.203125 C 74.003906 -60.648438 70.953125 -57.945312 67.203125 -56.09375 C 63.453125 -54.238281 59.519531 -53.0625 55.40625 -52.5625 L 57.359375 -54.0625 C 61.867188 -53.957031 66 -52.726562 69.75 -50.375 C 73.507812 -48.03125 76.539062 -44.90625 78.84375 -41 C 81.144531 -37.09375 82.296875 -32.6875 82.296875 -27.78125 C 82.296875 -22.570312 80.992188 -17.863281 78.390625 -13.65625 C 75.785156 -9.457031 71.976562 -6.128906 66.96875 -3.671875 C 61.96875 -1.222656 55.765625 0 48.359375 0 Z M 22.53125 -8.859375 L 47.609375 -8.859375 C 55.210938 -8.859375 61.140625 -10.609375 65.390625 -14.109375 C 69.648438 -17.617188 71.78125 -22.523438 71.78125 -28.828125 C 71.78125 -35.140625 69.550781 -40.117188 65.09375 -43.765625 C 60.644531 -47.421875 54.664062 -49.25 47.15625 -49.25 L 22.53125 -49.25 Z M 22.53125 -57.96875 L 47 -57.96875 C 54.113281 -57.96875 59.597656 -59.617188 63.453125 -62.921875 C 67.304688 -66.222656 69.234375 -70.78125 69.234375 -76.59375 C 69.234375 -82.195312 67.351562 -86.625 63.59375 -89.875 C 59.84375 -93.132812 54.160156 -94.765625 46.546875 -94.765625 L 22.53125 -94.765625 Z M 22.53125 -57.96875 "/></g></g></g><g fill="#000000" fill-opacity="1"><g transform="translate(303.775619, 179.504384)"><g><path d="M 50.609375 1.046875 C 44.503906 1.046875 38.820312 0.125 33.5625 -1.71875 C 28.300781 -3.570312 23.691406 -6.273438 19.734375 -9.828125 C 15.785156 -13.390625 12.707031 -17.722656 10.5 -22.828125 C 8.300781 -27.929688 7.203125 -33.785156 7.203125 -40.390625 C 7.203125 -46.398438 8.378906 -51.984375 10.734375 -57.140625 C 13.085938 -62.296875 16.316406 -66.828125 20.421875 -70.734375 C 24.523438 -74.640625 29.179688 -77.664062 34.390625 -79.8125 C 39.597656 -81.96875 45.003906 -83.046875 50.609375 -83.046875 C 55.515625 -83.046875 60.019531 -82.421875 64.125 -81.171875 C 68.226562 -79.921875 71.753906 -78.140625 74.703125 -75.828125 C 77.660156 -73.523438 79.960938 -70.894531 81.609375 -67.9375 C 83.265625 -64.988281 84.09375 -61.765625 84.09375 -58.265625 C 84.09375 -53.054688 82.71875 -48.75 79.96875 -45.34375 C 77.21875 -41.945312 73.535156 -39.296875 68.921875 -37.390625 C 64.316406 -35.492188 59.257812 -34.164062 53.75 -33.40625 C 48.25 -32.65625 42.695312 -32.28125 37.09375 -32.28125 C 34.789062 -32.28125 32.507812 -32.332031 30.25 -32.4375 C 28 -32.539062 25.847656 -32.71875 23.796875 -32.96875 C 21.742188 -33.21875 19.816406 -33.441406 18.015625 -33.640625 C 18.515625 -29.128906 20.140625 -24.921875 22.890625 -21.015625 C 25.648438 -17.117188 29.40625 -13.992188 34.15625 -11.640625 C 38.914062 -9.285156 44.398438 -8.109375 50.609375 -8.109375 C 55.210938 -8.109375 59.46875 -8.929688 63.375 -10.578125 C 67.28125 -12.234375 70.707031 -14.210938 73.65625 -16.515625 C 76.613281 -18.816406 78.941406 -20.921875 80.640625 -22.828125 L 88.296875 -16.8125 C 86.296875 -14.113281 83.46875 -11.382812 79.8125 -8.625 C 76.15625 -5.875 71.875 -3.570312 66.96875 -1.71875 C 62.070312 0.125 56.617188 1.046875 50.609375 1.046875 Z M 36.046875 -41.453125 C 40.347656 -41.453125 44.722656 -41.722656 49.171875 -42.265625 C 53.628906 -42.816406 57.710938 -43.691406 61.421875 -44.890625 C 65.128906 -46.097656 68.132812 -47.726562 70.4375 -49.78125 C 72.738281 -51.832031 73.890625 -54.359375 73.890625 -57.359375 C 73.890625 -60.566406 72.863281 -63.421875 70.8125 -65.921875 C 68.757812 -68.429688 66.003906 -70.382812 62.546875 -71.78125 C 59.085938 -73.1875 55.304688 -73.890625 51.203125 -73.890625 C 44.992188 -73.890625 39.382812 -72.359375 34.375 -69.296875 C 29.375 -66.242188 25.375 -62.335938 22.375 -57.578125 C 19.375 -52.828125 17.722656 -47.851562 17.421875 -42.65625 C 19.523438 -42.25 22.203125 -41.945312 25.453125 -41.75 C 28.703125 -41.550781 32.234375 -41.453125 36.046875 -41.453125 Z M 36.046875 -41.453125 "/></g></g></g><g fill="#000000" fill-opacity="1"><g transform="translate(391.627969, 179.504384)"><g><path d="M 45.796875 1.046875 C 38.691406 1.046875 32.207031 -0.726562 26.34375 -4.28125 C 20.488281 -7.832031 15.832031 -12.785156 12.375 -19.140625 C 8.925781 -25.503906 7.203125 -32.835938 7.203125 -41.140625 C 7.203125 -49.453125 8.925781 -56.757812 12.375 -63.0625 C 15.832031 -69.375 20.488281 -74.28125 26.34375 -77.78125 C 32.207031 -81.289062 38.691406 -83.046875 45.796875 -83.046875 C 53.503906 -83.046875 60.3125 -81.289062 66.21875 -77.78125 C 72.125 -74.28125 76.332031 -69.578125 78.84375 -63.671875 L 78.84375 -82 L 89.359375 -82 L 89.359375 0 L 85.453125 0 C 83.347656 0 81.71875 -0.570312 80.5625 -1.71875 C 79.414062 -2.875 78.84375 -4.503906 78.84375 -6.609375 L 78.84375 -18.625 C 76.238281 -12.71875 71.929688 -7.960938 65.921875 -4.359375 C 59.921875 -0.753906 53.210938 1.046875 45.796875 1.046875 Z M 48.359375 -8.109375 C 54.066406 -8.109375 59.222656 -9.457031 63.828125 -12.15625 C 68.429688 -14.863281 72.082031 -18.691406 74.78125 -23.640625 C 77.488281 -28.597656 78.84375 -34.429688 78.84375 -41.140625 C 78.84375 -47.847656 77.488281 -53.65625 74.78125 -58.5625 C 72.082031 -63.46875 68.429688 -67.25 63.828125 -69.90625 C 59.222656 -72.5625 54.066406 -73.890625 48.359375 -73.890625 C 42.648438 -73.890625 37.492188 -72.5625 32.890625 -69.90625 C 28.285156 -67.25 24.628906 -63.46875 21.921875 -58.5625 C 19.222656 -53.65625 17.875 -47.847656 17.875 -41.140625 C 17.875 -34.429688 19.222656 -28.597656 21.921875 -23.640625 C 24.628906 -18.691406 28.285156 -14.863281 32.890625 -12.15625 C 37.492188 -9.457031 42.648438 -8.109375 48.359375 -8.109375 Z M 48.359375 -8.109375 "/></g></g></g><g fill="#000000" fill-opacity="1"><g transform="translate(486.838927, 179.504384)"><g/></g></g><g fill="#000000" fill-opacity="1"><g transform="translate(521.829462, 179.504384)"><g><path d="M 14.71875 0 L 14.71875 -73.140625 L 3.296875 -73.140625 L 3.296875 -82 L 14.71875 -82 L 14.71875 -87.703125 C 14.71875 -92.203125 15.265625 -96.078125 16.359375 -99.328125 C 17.460938 -102.585938 19.191406 -105.269531 21.546875 -107.375 C 23.898438 -109.476562 26.90625 -111.054688 30.5625 -112.109375 C 34.21875 -113.160156 38.597656 -113.6875 43.703125 -113.6875 L 43.703125 -104.671875 C 39.191406 -104.671875 35.582031 -104.09375 32.875 -102.9375 C 30.175781 -101.789062 28.226562 -99.988281 27.03125 -97.53125 C 25.832031 -95.082031 25.234375 -91.804688 25.234375 -87.703125 L 25.234375 -82 L 44.296875 -82 L 44.296875 -73.140625 L 25.234375 -73.140625 L 25.234375 0 Z M 14.71875 0 "/></g></g></g><g fill="#000000" fill-opacity="1"><g transform="translate(564.478957, 179.504384)"><g><path d="M 12.765625 0 L 12.765625 -82 L 23.28125 -82 L 23.28125 0 Z M 18.015625 -97.46875 C 15.816406 -97.46875 13.863281 -98.238281 12.15625 -99.78125 C 10.457031 -101.332031 9.609375 -103.265625 9.609375 -105.578125 C 9.609375 -107.878906 10.382812 -109.753906 11.9375 -111.203125 C 13.488281 -112.648438 15.515625 -113.375 18.015625 -113.375 C 20.316406 -113.375 22.296875 -112.648438 23.953125 -111.203125 C 25.609375 -109.753906 26.4375 -107.878906 26.4375 -105.578125 C 26.4375 -103.265625 25.609375 -101.332031 23.953125 -99.78125 C 22.296875 -98.238281 20.316406 -97.46875 18.015625 -97.46875 Z M 18.015625 -97.46875 "/></g></g></g><g fill="#000000" fill-opacity="1"><g transform="translate(594.213333, 179.504384)"><g><path d="M 12.015625 -14.421875 L 12.015625 -111.125 L 22.53125 -111.125 L 22.53125 -15.3125 C 22.53125 -12.914062 23.179688 -11.140625 24.484375 -9.984375 C 25.785156 -8.835938 27.335938 -8.265625 29.140625 -8.265625 C 30.234375 -8.265625 31.332031 -8.460938 32.4375 -8.859375 L 34.84375 -0.90625 C 32.738281 0.394531 30.1875 1.046875 27.1875 1.046875 C 24.78125 1.046875 22.425781 0.546875 20.125 -0.453125 C 17.820312 -1.453125 15.894531 -3.101562 14.34375 -5.40625 C 12.789062 -7.707031 12.015625 -10.710938 12.015625 -14.421875 Z M 12.015625 -14.421875 "/></g></g></g><g fill="#000000" fill-opacity="1"><g transform="translate(627.702124, 179.504384)"><g><path d="M 12.015625 0 L 12.015625 -82 L 22.53125 -82 L 22.53125 -64.125 C 23.726562 -67.425781 25.601562 -70.503906 28.15625 -73.359375 C 30.707031 -76.210938 33.832031 -78.539062 37.53125 -80.34375 C 41.238281 -82.144531 45.5 -83.046875 50.3125 -83.046875 C 57.71875 -83.046875 64.125 -81.164062 69.53125 -77.40625 C 74.9375 -73.65625 78.585938 -68.425781 80.484375 -61.71875 C 81.691406 -65.820312 83.695312 -69.472656 86.5 -72.671875 C 89.300781 -75.878906 92.753906 -78.410156 96.859375 -80.265625 C 100.960938 -82.117188 105.414062 -83.046875 110.21875 -83.046875 C 120.03125 -83.046875 127.816406 -79.96875 133.578125 -73.8125 C 139.335938 -67.65625 142.21875 -59.269531 142.21875 -48.65625 L 142.21875 0 L 131.84375 0 L 131.84375 -46.40625 C 131.84375 -55.3125 129.613281 -62.117188 125.15625 -66.828125 C 120.707031 -71.535156 114.929688 -73.890625 107.828125 -73.890625 C 100.410156 -73.890625 94.320312 -71.109375 89.5625 -65.546875 C 84.8125 -59.992188 82.4375 -52.210938 82.4375 -42.203125 L 82.4375 0 L 72.078125 0 L 72.078125 -45.203125 C 72.078125 -54.316406 69.875 -61.375 65.46875 -66.375 C 61.070312 -71.382812 55.21875 -73.890625 47.90625 -73.890625 C 43.101562 -73.890625 38.796875 -72.5625 34.984375 -69.90625 C 31.179688 -67.25 28.15625 -63.539062 25.90625 -58.78125 C 23.65625 -54.03125 22.53125 -48.503906 22.53125 -42.203125 L 22.53125 0 Z M 12.015625 0 "/></g></g></g><g fill="#000000" fill-opacity="1"><g transform="translate(775.02403, 179.504384)"><g><path d="M 39.796875 1.046875 C 33.585938 1.046875 28.203125 0.046875 23.640625 -1.953125 C 19.085938 -3.953125 15.4375 -6.675781 12.6875 -10.125 C 9.9375 -13.582031 8.109375 -17.46875 7.203125 -21.78125 L 16.8125 -23.875 C 17.820312 -19.375 20.203125 -15.59375 23.953125 -12.53125 C 27.703125 -9.476562 32.929688 -7.953125 39.640625 -7.953125 C 45.546875 -7.953125 50.078125 -9.28125 53.234375 -11.9375 C 56.390625 -14.59375 57.96875 -17.875 57.96875 -21.78125 C 57.96875 -25.175781 56.789062 -27.828125 54.4375 -29.734375 C 52.082031 -31.640625 49.023438 -33.164062 45.265625 -34.3125 C 41.515625 -35.46875 37.535156 -36.59375 33.328125 -37.6875 C 29.128906 -38.789062 25.148438 -40.191406 21.390625 -41.890625 C 17.640625 -43.597656 14.585938 -45.953125 12.234375 -48.953125 C 9.878906 -51.960938 8.703125 -55.96875 8.703125 -60.96875 C 8.703125 -65.070312 9.90625 -68.773438 12.3125 -72.078125 C 14.71875 -75.378906 18.097656 -78.03125 22.453125 -80.03125 C 26.804688 -82.039062 31.835938 -83.046875 37.546875 -83.046875 C 43.453125 -83.046875 48.351562 -82.09375 52.25 -80.1875 C 56.15625 -78.289062 59.257812 -75.789062 61.5625 -72.6875 C 63.875 -69.582031 65.425781 -66.128906 66.21875 -62.328125 L 57.0625 -59.625 C 56.164062 -63.320312 54.1875 -66.644531 51.125 -69.59375 C 48.070312 -72.550781 43.445312 -74.03125 37.25 -74.03125 C 31.738281 -74.03125 27.378906 -72.78125 24.171875 -70.28125 C 20.972656 -67.78125 19.375 -64.726562 19.375 -61.125 C 19.375 -57.414062 20.550781 -54.507812 22.90625 -52.40625 C 25.257812 -50.300781 28.285156 -48.648438 31.984375 -47.453125 C 35.691406 -46.253906 39.644531 -45.101562 43.84375 -44 C 48.050781 -42.894531 52.003906 -41.539062 55.703125 -39.9375 C 59.410156 -38.34375 62.441406 -36.117188 64.796875 -33.265625 C 67.148438 -30.410156 68.328125 -26.582031 68.328125 -21.78125 C 68.328125 -17.375 67.125 -13.441406 64.71875 -9.984375 C 62.320312 -6.535156 58.992188 -3.832031 54.734375 -1.875 C 50.484375 0.0703125 45.503906 1.046875 39.796875 1.046875 Z M 39.796875 1.046875 "/></g></g></g></svg>